<?xml version="1.0" standalone="no"?>
<!DOCTYPE svg PUBLIC "-//W3C//DTD SVG 20010904//EN"
 "http://www.w3.org/TR/2001/REC-SVG-20010904/DTD/svg10.dtd">
<svg version="1.0" xmlns="http://www.w3.org/2000/svg"
 width="1500.000000pt" height="1300.000000pt" viewBox="0 0 1500.000000 1300.000000"
 preserveAspectRatio="xMidYMid meet">

<g transform="translate(0.000000,1300.000000) scale(0.100000,-0.100000)"
fill="#fbc531" stroke="none">
<path d="M12120 12280 c-103 -15 -3693 -1096 -3840 -1157 -93 -38 -198 -96
-275 -154 -65 -48 -252 -240 -293 -301 -92 -136 -163 -331 -182 -503 -16 -143
-28 -883 -29 -1846 l-1 -765 58 -28 c31 -15 350 -160 707 -323 358 -162 688
-314 735 -339 294 -151 491 -415 532 -713 7 -49 13 -635 17 -1661 l6 -1585
180 -42 c260 -62 2085 -450 2218 -472 383 -64 707 -11 955 158 91 61 201 178
254 267 55 94 81 155 119 289 l29 99 0 3196 c-1 3500 -10 4756 -35 4880 -68
339 -244 646 -470 817 -86 65 -286 161 -360 173 -93 14 -264 19 -325 10z"/>
<path d="M5365 9743 c-27 -2 -81 -8 -120 -14 -124 -20 -2709 -729 -3005 -824
-114 -37 -215 -84 -278 -132 -58 -44 -183 -196 -219 -266 -58 -117 -73 -178
-83 -347 -11 -186 -12 -3623 -1 -3830 7 -133 11 -152 41 -224 43 -101 137
-243 197 -296 93 -82 171 -113 543 -219 139 -40 1316 -360 2169 -592 80 -21
147 -37 149 -34 14 13 21 817 22 2440 1 1018 5 1967 10 2110 7 243 9 265 34
338 42 124 73 177 155 258 128 128 261 175 461 166 153 -7 195 -21 585 -190
215 -93 191 -97 199 30 3 60 2 252 -3 428 -13 411 -27 503 -110 681 -54 116
-100 183 -188 276 -165 172 -345 250 -558 241z"/>
<path d="M5435 8034 c-65 -10 -164 -56 -214 -99 -117 -100 -175 -191 -225
-356 l-26 -85 0 -2025 c0 -1114 3 -2154 7 -2311 l6 -286 36 -10 c62 -18 192
-24 296 -13 386 40 725 281 866 616 l33 80 7 410 c4 226 7 1185 8 2131 1 1369
-2 1723 -11 1727 -7 3 -96 41 -198 85 -272 117 -325 133 -450 137 -58 2 -118
1 -135 -1z"/>
<path d="M6445 7636 c-4 -77 -10 -1045 -15 -2151 -5 -1343 -12 -2028 -19
-2065 -6 -29 -29 -92 -51 -139 -130 -271 -369 -468 -700 -576 -83 -28 -92 -28
-350 -32 -146 -2 -280 -6 -297 -9 l-33 -5 0 -570 0 -571 32 -91 c45 -131 62
-170 107 -236 82 -120 237 -232 372 -268 51 -13 106 -17 269 -16 l205 0 109
37 c254 87 1147 414 1641 601 462 176 867 349 1137 487 151 77 190 102 271
173 108 95 162 171 206 285 33 86 43 191 19 207 -21 13 -115 39 -543 149 -851
218 -901 232 -980 279 -76 44 -190 140 -250 211 -121 142 -194 283 -246 479
-24 86 -22 -51 -38 3320 l-2 270 -300 134 c-165 74 -353 158 -419 187 l-118
52 -7 -142z"/>
<path d="M7503 5672 c3 -1183 8 -1674 16 -1716 42 -212 191 -452 364 -581 139
-105 183 -120 902 -301 l570 -143 3 1427 c3 1611 1 1689 -52 1845 -45 132
-114 243 -211 341 -127 127 -135 131 -1130 578 -209 94 -399 179 -423 189
l-44 19 5 -1658z"/>
</g>
</svg>
