<?xml version="1.0" standalone="no"?>
<!DOCTYPE svg PUBLIC "-//W3C//DTD SVG 20010904//EN"
 "http://www.w3.org/TR/2001/REC-SVG-20010904/DTD/svg10.dtd">
<svg version="1.0" xmlns="http://www.w3.org/2000/svg"
 width="1404.000000pt" height="179.000000pt" viewBox="0 0 1404.000000 179.000000"
 preserveAspectRatio="xMidYMid meet">

<g transform="translate(0.000000,179.000000) scale(0.100000,-0.100000)"
fill="#fff" stroke="none">
<path d="M4468 1188 c-3 -584 -3 -594 -24 -633 -25 -46 -45 -65 -94 -91 -33
-18 -66 -19 -550 -19 -508 0 -516 0 -555 22 -102 54 -115 96 -115 358 0 124 4
215 11 236 18 51 55 97 102 122 42 22 46 22 545 25 l502 3 0 135 0 134 -477 0
c-263 0 -511 -5 -551 -10 -151 -20 -293 -122 -361 -261 -30 -61 -33 -76 -43
-228 -8 -119 -8 -205 0 -319 11 -148 13 -160 47 -228 47 -96 125 -173 223
-221 l76 -38 540 -3 c348 -2 564 1 608 8 197 30 358 199 379 397 4 43 8 331 8
641 l1 562 -135 0 -134 0 -3 -592z"/>
<path d="M4930 1635 l0 -145 150 0 150 0 0 145 0 145 -150 0 -150 0 0 -145z"/>
<path d="M9392 1137 l3 -642 34 -70 c45 -90 144 -190 232 -234 62 -30 72 -32
244 -41 99 -5 188 -10 198 -10 15 0 17 13 17 139 l0 139 -152 4 c-129 2 -159
6 -192 23 -50 25 -95 81 -107 131 -4 22 -9 301 -9 622 l0 582 -135 0 -136 0 3
-643z"/>
<path d="M377 1670 c-125 -21 -261 -124 -320 -242 -56 -112 -57 -116 -57 -710
l0 -548 133 0 134 0 6 158 c4 86 7 327 7 535 0 416 1 421 63 485 44 45 108 62
239 62 l108 0 0 135 0 135 -132 -1 c-73 -1 -155 -5 -181 -9z"/>
<path d="M1680 1526 l0 -136 250 0 c303 0 339 -6 397 -65 61 -64 65 -94 61
-461 l-3 -311 -28 -41 c-15 -23 -46 -52 -70 -64 -42 -23 -43 -23 -560 -26
-333 -2 -531 1 -556 8 -104 28 -144 90 -149 230 -3 89 -2 99 25 150 22 41 40
61 73 80 l45 25 393 3 392 3 0 135 0 135 -428 -3 -428 -3 -80 -39 c-183 -91
-274 -250 -274 -481 0 -168 42 -277 147 -383 67 -68 135 -105 223 -122 67 -13
1104 -13 1182 -1 178 30 337 194 368 382 8 42 10 184 8 400 -5 378 -7 392 -81
501 -50 73 -155 158 -237 190 -51 20 -76 22 -362 26 l-308 4 0 -136z"/>
<path d="M7788 1650 c-134 -16 -274 -114 -341 -237 -54 -102 -57 -132 -57
-800 l0 -613 134 0 135 0 3 608 c3 668 1 647 66 715 60 64 42 62 557 65 566 4
578 3 635 -46 74 -63 80 -85 80 -337 0 -192 -3 -225 -19 -261 -27 -58 -91
-110 -148 -118 -25 -3 -259 -6 -519 -6 l-474 0 0 -135 0 -135 458 0 c547 1
630 6 716 49 83 41 168 128 213 218 42 86 52 154 52 383 1 225 -11 316 -50
396 -59 120 -189 223 -319 253 -53 12 -1018 13 -1122 1z"/>
<path d="M11300 1526 l0 -134 283 -4 c279 -3 282 -3 327 -28 32 -18 51 -39 72
-79 l28 -53 0 -327 c0 -319 -1 -328 -22 -371 -25 -49 -70 -84 -127 -100 -52
-14 -1024 -13 -1076 1 -52 15 -119 82 -134 134 -14 51 -14 158 0 210 15 56 93
130 145 138 21 4 204 7 407 7 l367 0 0 136 0 135 -428 -3 -428 -3 -78 -38
c-190 -94 -287 -279 -272 -517 10 -166 45 -246 153 -352 70 -68 143 -107 226
-119 87 -12 1111 -12 1177 1 174 33 327 192 361 373 6 37 9 190 7 411 l-3 352
-38 76 c-73 149 -207 254 -353 278 -33 6 -179 10 -326 10 l-268 0 0 -134z"/>
<path d="M12392 1303 c4 -327 6 -363 25 -420 43 -129 124 -220 252 -281 l73
-35 431 -9 c237 -5 442 -6 454 -3 23 5 23 8 23 140 l0 134 -417 3 -418 3 -44
25 c-31 18 -53 41 -75 80 l-31 55 -3 333 -4 332 -135 0 -135 0 4 -357z"/>
<path d="M13766 1583 c-3 -42 -6 -316 -6 -610 0 -575 0 -575 -53 -631 -52 -56
-56 -57 -422 -62 l-340 -5 -3 -137 -3 -138 188 1 c103 0 274 4 378 8 186 6
191 7 258 39 141 66 247 210 267 362 5 41 10 339 10 663 l0 587 -134 0 -133 0
-7 -77z"/>
<path d="M5800 1619 c-75 -14 -202 -83 -263 -143 -132 -130 -162 -328 -76
-498 66 -130 205 -221 365 -238 49 -6 289 -14 534 -18 398 -8 449 -10 481 -26
88 -44 93 -157 10 -209 -34 -21 -50 -22 -316 -28 -154 -4 -470 -7 -702 -8
l-423 -1 0 -135 0 -135 703 0 c772 0 757 -1 886 62 81 39 145 102 179 176 22
50 26 70 26 167 1 101 -1 115 -27 166 -32 67 -114 147 -187 184 -101 51 -148
56 -645 63 -436 7 -462 8 -505 28 -137 63 -168 179 -71 267 65 59 77 60 514
64 l397 4 0 135 0 134 -417 -1 c-230 -1 -438 -5 -463 -10z"/>
<path d="M4930 780 l0 -620 150 0 150 0 0 620 0 620 -150 0 -150 0 0 -620z"/>
</g>
</svg>
